<?xml version="1.0" standalone="no"?>
<!DOCTYPE svg PUBLIC "-//W3C//DTD SVG 20010904//EN"
 "http://www.w3.org/TR/2001/REC-SVG-20010904/DTD/svg10.dtd">
<svg version="1.0" xmlns="http://www.w3.org/2000/svg"
 width="900.000000pt" height="900.000000pt" viewBox="0 0 900.000000 900.000000"
 preserveAspectRatio="xMidYMid meet">

<g transform="translate(0.000000,900.000000) scale(0.100000,-0.100000)"
fill="#000000" stroke="none">
<path d="M1760 6659 c-101 -20 -208 -94 -265 -183 -52 -83 -67 -143 -63 -254
3 -87 7 -105 37 -167 42 -86 112 -155 201 -198 62 -30 71 -32 180 -32 109 0
118 2 180 32 116 56 204 166 230 284 68 310 -191 579 -500 518z"/>
<path d="M2655 6657 c-261 -67 -395 -356 -279 -601 128 -271 501 -321 699 -94
21 24 51 72 68 108 29 60 31 73 31 170 0 86 -4 115 -22 159 -47 113 -148 208
-264 248 -59 20 -173 25 -233 10z"/>
<path d="M6225 6603 c-65 -9 -107 -25 -141 -55 -61 -53 -81 -116 -63 -198 16
-73 67 -116 204 -169 122 -47 165 -79 165 -123 0 -106 -154 -131 -332 -54 -13
6 -22 -3 -43 -44 l-26 -51 53 -24 c74 -34 182 -48 266 -35 119 19 191 79 213
174 26 118 -31 198 -182 255 -46 18 -96 37 -111 43 -74 28 -103 103 -57 144
32 29 196 27 262 -3 l47 -22 0 44 c0 24 3 50 6 59 8 22 -40 43 -130 55 -42 6
-83 10 -89 10 -7 -1 -25 -4 -42 -6z"/>
<path d="M3520 6230 l0 -372 198 4 c213 3 232 7 295 67 44 40 60 80 61 146 1
75 -23 121 -82 153 l-43 24 35 38 c77 85 49 226 -57 282 -38 21 -58 23 -224
26 l-183 4 0 -372z m349 224 c24 -20 31 -34 31 -63 0 -74 -46 -101 -177 -101
l-73 0 0 95 0 95 94 0 c87 0 97 -2 125 -26z m11 -288 c24 -8 41 -24 54 -50 16
-33 17 -41 4 -74 -21 -56 -61 -72 -185 -72 l-103 0 0 98 c0 54 3 102 7 105 11
12 186 6 223 -7z"/>
<path d="M4160 6231 l0 -371 65 0 65 0 0 140 0 140 69 0 c68 0 70 -1 100 -37
16 -20 51 -83 78 -140 l48 -103 73 0 c39 0 72 3 72 7 0 14 -144 280 -164 302
-14 16 -17 25 -9 28 36 13 79 53 101 93 19 37 23 56 20 107 -5 80 -42 136
-113 172 -47 25 -60 26 -227 29 l-178 4 0 -371z m356 215 c52 -52 44 -128 -18
-166 -26 -16 -51 -20 -120 -20 l-88 0 0 110 0 110 96 0 c96 0 96 0 130 -34z"/>
<path d="M4820 6230 l0 -370 65 0 65 0 0 370 0 370 -65 0 -65 0 0 -370z"/>
<path d="M5042 6543 l3 -58 118 -3 117 -3 0 -309 0 -310 65 0 65 0 0 310 0
310 115 0 115 0 0 60 0 60 -300 0 -301 0 3 -57z"/>
<path d="M5740 6230 l0 -370 65 0 65 0 0 370 0 370 -65 0 -65 0 0 -370z"/>
<path d="M6640 6230 l0 -370 65 0 64 0 3 158 3 157 175 0 175 0 3 -157 3 -158
64 0 65 0 0 370 0 370 -65 0 -65 0 0 -150 0 -150 -180 0 -180 0 0 150 0 150
-65 0 -65 0 0 -370z"/>
<path d="M1749 5745 c-126 -34 -228 -118 -282 -232 -30 -64 -32 -74 -32 -183
0 -111 1 -118 34 -185 151 -306 583 -318 750 -21 64 113 68 276 11 392 -88
180 -298 280 -481 229z"/>
<path d="M2644 5741 c-83 -24 -143 -61 -199 -123 -249 -275 -59 -709 310 -709
373 0 564 439 308 712 -112 119 -266 164 -419 120z"/>
<path d="M3664 5699 c-147 -56 -236 -243 -206 -434 32 -204 177 -320 381 -302
78 7 161 34 161 52 0 11 -28 85 -35 93 -2 2 -24 -4 -49 -12 -178 -61 -328 51
-328 242 1 121 48 207 136 248 62 29 115 30 189 5 l56 -19 15 46 c9 25 16 51
16 57 0 21 -111 45 -201 44 -59 0 -99 -6 -135 -20z"/>
<path d="M4255 5703 c-190 -77 -276 -310 -194 -528 33 -90 114 -166 203 -194
87 -27 149 -27 233 1 170 55 265 250 224 460 -25 123 -99 217 -205 257 -71 26
-200 28 -261 4z m238 -129 c29 -20 51 -48 72 -88 26 -53 29 -70 29 -145 -1
-95 -18 -147 -62 -194 -81 -87 -222 -89 -298 -5 -113 124 -82 370 55 444 64
34 144 30 204 -12z"/>
<path d="M4822 5433 c3 -280 4 -289 27 -336 30 -60 73 -93 152 -118 133 -42
287 -9 357 77 51 62 57 102 57 394 l0 265 -62 3 -62 3 -3 -275 c-3 -259 -4
-276 -24 -303 -46 -63 -157 -83 -240 -43 -71 35 -74 48 -74 354 l0 266 -66 0
-65 0 3 -287z"/>
<path d="M5532 5348 l3 -373 60 0 60 0 0 263 c0 144 2 262 5 262 3 0 43 -56
90 -125 197 -290 259 -381 270 -393 8 -8 30 -12 63 -10 l52 3 0 370 0 370 -62
3 -63 3 0 -246 c0 -135 -3 -245 -7 -245 -5 1 -82 111 -172 245 l-164 245 -69
0 -68 0 2 -372z"/>
<path d="M6443 5699 c-60 -23 -132 -89 -162 -148 -91 -177 -48 -431 87 -525
69 -47 148 -68 237 -63 87 6 175 32 175 51 0 16 -21 79 -29 88 -4 4 -28 1 -55
-7 -185 -56 -326 51 -325 245 0 126 43 204 133 246 62 29 115 30 189 5 l56
-19 15 46 c9 25 16 51 16 57 0 6 -24 19 -53 28 -76 24 -216 22 -284 -4z"/>
<path d="M6890 5345 l0 -375 60 0 60 0 0 375 0 375 -60 0 -60 0 0 -375z"/>
<path d="M7130 5345 l0 -375 208 2 207 3 3 58 3 57 -145 0 -146 0 -2 313 -3
312 -62 3 -63 3 0 -376z"/>
<path d="M6435 4090 c-299 -47 -486 -220 -509 -472 -17 -196 83 -368 271 -466
111 -57 171 -80 407 -152 180 -56 214 -70 250 -101 40 -36 41 -39 41 -99 0
-59 -1 -63 -41 -100 -53 -49 -105 -64 -224 -65 -123 0 -178 16 -239 71 -52 47
-75 91 -86 167 l-7 47 -204 0 c-166 0 -204 -3 -204 -14 0 -7 7 -52 15 -99 47
-267 204 -425 470 -473 104 -18 316 -18 430 1 213 35 375 136 451 280 75 143
72 339 -7 471 -77 127 -164 177 -509 289 -301 98 -357 124 -391 179 -10 17
-19 48 -19 68 0 49 53 110 118 135 63 24 190 24 254 0 64 -25 122 -89 139
-156 l13 -51 200 2 200 3 -3 49 c-3 60 -44 188 -73 230 -122 176 -286 253
-553 261 -71 2 -157 0 -190 -5z"/>
<path d="M7180 4041 c0 -14 8 -21 28 -23 26 -3 27 -5 30 -75 2 -55 6 -73 17
-73 11 0 15 18 17 72 3 68 5 73 28 78 14 3 26 14 28 23 3 15 -6 17 -72 17 -68
0 -76 -2 -76 -19z"/>
<path d="M7357 4054 c-4 -4 -7 -47 -7 -96 0 -81 2 -88 20 -88 17 0 20 7 20 39
0 56 16 59 29 5 10 -38 15 -45 34 -42 17 2 24 13 31 46 12 55 26 54 26 -3 0
-38 3 -45 20 -45 19 0 20 7 20 96 l0 95 -32 -3 c-30 -3 -34 -7 -47 -55 -8 -29
-17 -53 -21 -53 -4 0 -14 24 -22 53 -12 43 -19 53 -39 55 -14 2 -28 0 -32 -4z"/>
<path d="M1490 3205 l0 -845 210 0 210 0 0 845 0 845 -210 0 -210 0 0 -845z"/>
<path d="M2092 3208 l3 -843 650 0 650 0 0 170 0 170 -435 5 -435 5 0 170 0
170 433 3 432 2 0 165 c0 125 -3 165 -12 165 -7 0 -197 0 -423 0 -225 0 -416
4 -423 9 -9 6 -12 44 -10 157 l3 149 435 5 435 5 3 168 2 167 -655 0 -655 0 2
-842z"/>
<path d="M3572 3208 l3 -843 605 0 605 0 0 178 0 177 -387 3 c-257 1 -391 6
-398 13 -7 7 -9 212 -8 662 l3 652 -213 0 -212 0 2 -842z"/>
<path d="M4472 3883 l3 -168 235 -1 235 -2 5 -673 5 -674 210 0 210 0 3 673 2
672 230 1 c127 1 236 2 243 3 9 1 13 43 15 169 l2 167 -700 0 -700 0 2 -167z"/>
</g>
</svg>
