<?xml version="1.0" standalone="no"?>
<!DOCTYPE svg PUBLIC "-//W3C//DTD SVG 20010904//EN"
 "http://www.w3.org/TR/2001/REC-SVG-20010904/DTD/svg10.dtd">
<svg version="1.0" xmlns="http://www.w3.org/2000/svg"
 width="900.000000pt" height="899.000000pt" viewBox="0 0 900.000000 899.000000"
 preserveAspectRatio="xMidYMid meet">

<g transform="translate(0.000000,899.000000) scale(0.100000,-0.100000)"
fill="#000000" stroke="none">
<path d="M1120 5350 l0 -660 420 0 420 0 0 75 0 75 -335 0 -335 0 0 585 0 585
-85 0 -85 0 0 -660z"/>
<path d="M2276 5629 c-48 -11 -149 -65 -172 -90 -16 -17 -14 -21 26 -69 23
-27 46 -50 52 -50 6 0 23 11 40 25 39 33 96 47 194 46 61 0 95 -5 128 -19 60
-27 76 -60 76 -159 l0 -78 -127 3 c-149 4 -268 -10 -320 -37 -45 -23 -93 -72
-119 -121 -26 -49 -27 -201 -1 -247 26 -48 78 -96 133 -123 44 -22 62 -25 174
-25 133 0 167 8 228 52 l32 24 0 -35 0 -36 80 0 80 0 0 353 c0 407 -3 429 -73
501 -63 65 -134 88 -277 92 -63 2 -132 -1 -154 -7z m344 -605 c0 -105 -18
-142 -86 -174 -63 -31 -191 -37 -259 -13 -84 30 -120 117 -80 193 31 60 89 75
298 79 l127 2 0 -87z"/>
<path d="M3008 5632 l-68 -3 0 -470 0 -470 78 3 77 3 2 309 c1 261 4 315 18
352 59 156 316 180 386 37 24 -47 24 -55 27 -375 l3 -328 80 0 81 0 -4 358
c-5 415 -6 421 -93 509 -41 40 -65 55 -110 69 -121 35 -268 3 -350 -77 -17
-16 -33 -29 -36 -29 -3 0 -4 22 -2 48 2 32 -1 52 -9 58 -7 5 -43 8 -80 6z"/>
<path d="M4071 5629 c-90 -27 -163 -106 -202 -220 -27 -80 -38 -315 -19 -426
25 -149 105 -256 216 -289 114 -33 257 -4 332 69 l34 32 -4 -102 c-3 -94 -5
-104 -33 -144 -45 -64 -110 -94 -206 -94 -69 0 -84 4 -149 37 -41 21 -74 37
-75 35 -1 -1 -21 -28 -44 -60 -40 -54 -42 -60 -27 -76 45 -50 180 -91 294 -91
174 1 290 68 359 207 l38 77 3 523 3 523 -81 0 -80 0 0 -51 0 -52 -19 25 c-11
13 -43 37 -73 53 -46 25 -65 30 -143 32 -49 1 -105 -2 -124 -8z m235 -158 c86
-39 124 -131 124 -301 0 -230 -68 -334 -219 -334 -74 0 -115 17 -154 63 -44
53 -52 94 -52 261 0 140 3 160 23 205 29 63 48 84 97 106 51 24 129 24 181 0z"/>
<path d="M5913 5625 c-70 -19 -122 -47 -155 -82 l-28 -29 50 -49 c46 -46 50
-48 68 -32 41 37 111 58 196 59 170 1 226 -45 226 -185 l0 -64 -188 -5 c-185
-4 -190 -5 -254 -35 -103 -48 -151 -127 -151 -248 0 -82 16 -126 67 -183 53
-58 121 -85 235 -90 112 -5 182 8 245 48 l46 30 0 -35 0 -35 81 0 81 0 -4 368
c-3 329 -5 371 -22 410 -23 54 -102 125 -164 147 -66 24 -259 30 -329 10z
m352 -607 c0 -103 -14 -129 -91 -168 -42 -21 -63 -25 -144 -25 -105 0 -144 14
-184 68 -31 42 -29 117 4 152 50 53 97 64 285 61 l130 -1 0 -87z"/>
<path d="M6786 5625 c-87 -33 -151 -106 -186 -210 -42 -125 -43 -389 -4 -509
52 -156 164 -233 323 -224 86 5 148 29 204 78 l37 32 0 -77 c0 -100 -16 -151
-61 -196 -80 -80 -206 -90 -331 -26 -39 20 -72 36 -73 34 -1 -1 -21 -28 -45
-60 -41 -56 -42 -58 -25 -77 50 -56 199 -96 322 -87 96 6 133 17 203 59 64 39
109 95 142 175 23 58 23 60 26 576 l3 517 -81 0 -80 0 0 -51 0 -52 -19 25
c-11 13 -43 37 -73 53 -46 26 -65 30 -148 32 -66 2 -107 -2 -134 -12z m251
-155 c53 -24 97 -90 114 -169 18 -88 7 -275 -20 -336 -42 -95 -92 -129 -191
-129 -106 0 -166 46 -196 151 -19 66 -15 303 7 366 39 114 173 169 286 117z"/>
<path d="M7753 5626 c-140 -45 -231 -157 -264 -325 -17 -90 -7 -300 19 -372
44 -125 115 -197 225 -231 57 -17 86 -20 170 -15 57 2 122 12 147 21 54 20
140 77 140 92 0 7 -21 35 -46 63 l-45 50 -41 -29 c-107 -78 -245 -79 -330 -2
-49 44 -75 98 -84 175 l-7 57 307 0 306 0 0 78 c0 206 -65 339 -202 412 -57
31 -72 34 -158 37 -61 2 -110 -2 -137 -11z m199 -146 c4 0 23 -14 43 -32 46
-39 74 -96 82 -159 l6 -49 -222 0 -222 0 7 38 c28 158 123 235 259 210 22 -4
43 -7 47 -8z"/>
<path d="M4780 5293 c0 -367 6 -421 53 -492 55 -83 139 -121 267 -121 96 0
175 26 231 77 l39 35 0 -51 0 -51 80 0 80 0 0 470 0 470 -80 0 -80 0 0 -307
c0 -184 -4 -323 -11 -346 -13 -48 -61 -102 -112 -129 -57 -29 -188 -23 -235
11 -66 47 -67 50 -70 429 l-3 342 -79 0 -80 0 0 -337z"/>
<path d="M1435 4399 c-174 -21 -313 -133 -367 -297 -20 -61 -22 -92 -26 -332
-3 -214 0 -280 12 -340 33 -154 108 -253 243 -318 l78 -37 135 0 c116 1 143 4
190 23 76 30 148 88 192 152 59 89 59 92 -20 128 -38 18 -71 32 -74 32 -4 0
-18 -20 -32 -44 -102 -174 -351 -196 -482 -42 -67 78 -77 125 -82 369 -6 313
14 398 114 486 84 73 232 93 329 43 45 -23 119 -97 130 -131 8 -28 20 -27 99
9 l66 30 -19 38 c-89 172 -270 258 -486 231z"/>
<path d="M3620 4135 l0 -115 -55 0 -55 0 0 -65 0 -65 54 0 55 0 3 -332 c3
-378 5 -385 87 -443 38 -27 50 -30 141 -33 l100 -4 0 66 0 66 -44 0 c-23 0
-57 5 -74 11 -53 18 -57 42 -57 369 l0 295 73 3 73 3 -3 62 -3 62 -35 2 c-19
0 -52 2 -72 2 l-38 1 0 115 0 115 -75 0 -75 0 0 -115z"/>
<path d="M2319 4020 c-190 -34 -301 -185 -316 -430 -14 -240 57 -409 204 -482
66 -32 71 -33 193 -32 93 0 136 4 170 17 52 20 140 78 140 92 0 5 -21 30 -46
56 l-46 46 -55 -33 c-129 -77 -262 -64 -342 33 -35 42 -61 117 -61 175 l0 38
305 0 305 0 0 58 c-1 175 -44 298 -132 377 -80 72 -207 106 -319 85z m169
-162 c26 -12 54 -36 69 -59 26 -40 58 -153 48 -169 -4 -6 -97 -10 -226 -10
l-219 0 0 23 c0 13 6 45 14 71 45 149 175 209 314 144z"/>
<path d="M2927 4014 c-4 -4 -7 -216 -7 -471 l0 -463 80 0 80 0 0 323 c0 320 0
324 23 368 15 29 40 54 72 74 41 26 57 29 119 29 46 0 82 -6 102 -16 l30 -17
32 72 31 72 -37 17 c-49 23 -176 24 -234 2 -24 -9 -64 -37 -90 -62 l-47 -45
-3 59 -3 59 -70 3 c-39 1 -74 0 -78 -4z"/>
</g>
</svg>
